{
  "source": "C:\\Users\\Peter\\Desktop\\stuff\\MIUN\\quantitative_research\\video_compression\\videos\\BVI-HD\\BVI-HD_CDVL_videos\\ORIG\\FishAndRock_1920x1080_30fps.mp4",
  "output": "C:\\Users\\Peter\\Desktop\\stuff\\MIUN\\quantitative_research\\video_compression\\compressed_videos\\BVI-HD\\av1\\2\\FishAndRock_1920x1080_30fps_av1.mkv",
  "codec": "av1",
  "ok": "Input #0, mov,mp4,m4a,3gp,3g2,mj2, from 'C:\\Users\\Peter\\Desktop\\stuff\\MIUN\\quantitative_research\\video_compression\\videos\\BVI-HD\\BVI-HD_CDVL_videos\\ORIG\\FishAndRock_1920x1080_30fps.mp4':\n  Metadata:\n    major_brand     : isom\n    minor_version   : 512\n    compatible_brands: isomiso2avc1mp41\n    encoder         : Lavf54.28.101\n  Duration: 00:00:05.00, start: 0.000000, bitrate: 251564 kb/s\n  Stream #0:0[0x1](und): Video: h264 (High 4:4:4 Predictive) (avc1 / 0x31637661), yuv420p(progressive), 1920x1080, 251561 kb/s, 30 fps, 30 tbr, 30 tbn (default)\n    Metadata:\n      handler_name    : VideoHandler\n      vendor_id       : [0][0][0][0]\n[out#0/matroska @ 000002a0abdf8fc0] Codec AVOption b:a (set bitrate (in bits/s)) has not been used for any stream. The most likely reason is either wrong type (e.g. a video option with no video streams) or that it is a private option of some decoder which was not actually used for any stream.\nStream mapping:\n  Stream #0:0 -> #0:0 (h264 (native) -> av1 (libsvtav1))\nPress [q] to stop, [?] for help\nSvt[info]: -------------------------------------------\nSvt[info]: SVT [version]:\tSVT-AV1 Encoder Lib v3.1.0-19-g6ecfe8ec\nSvt[info]: SVT [build]  :\tGCC 15.2.0\t 64 bit\nSvt[info]: LIB Build date: Aug 17 2025 11:37:13\nSvt[info]: -------------------------------------------\nSvt[info]: Level of Parallelism: 5\nSvt[info]: Number of PPCS 93\nSvt[info]: [asm level on system : up to avx2]\nSvt[info]: [asm level selected : up to avx2]\nSvt[info]: -------------------------------------------\nSvt[info]: SVT [config]: main profile\ttier (auto)\tlevel (auto)\nSvt[info]: SVT [config]: width / height / fps numerator / fps denominator \t\t: 1920 / 1080 / 30 / 1\nSvt[info]: SVT [config]: bit-depth / color format \t\t\t\t\t: 8 / YUV420\nSvt[info]: SVT [config]: preset / tune / pred struct \t\t\t\t\t: 4 / PSNR / random access\nSvt[info]: SVT [config]: gop size / mini-gop size / key-frame type \t\t\t: 161 / 16 / key frame\nSvt[info]: SVT [config]: BRC mode / target bitrate (kbps)\t\t\t\t: VBR / 2000 \nSvt[info]: SVT [config]: AQ mode / Variance Boost \t\t\t\t\t: 2 / 0\nSvt[info]: SVT [config]: sharpness / luminance-based QP bias \t\t\t\t: 0 / 0\nSvt[info]: SVT [config]: QP scale compress strength \t\t\t\t\t: 0\nSvt[info]: -------------------------------------------\nOutput #0, matroska, to 'C:\\Users\\Peter\\Desktop\\stuff\\MIUN\\quantitative_research\\video_compression\\compressed_videos\\BVI-HD\\av1\\2\\FishAndRock_1920x1080_30fps_av1.mkv':\n  Metadata:\n    major_brand     : isom\n    minor_version   : 512\n    compatible_brands: isomiso2avc1mp41\n    encoder         : Lavf62.3.100\n  Stream #0:0(und): Video: av1 (AV01 / 0x31305641), yuv420p(tv, progressive), 1920x1080, q=2-31, 2000 kb/s, 30 fps, 1k tbn (default)\n    Metadata:\n      encoder         : Lavc62.11.100 libsvtav1\n      handler_name    : VideoHandler\n      vendor_id       : [0][0][0][0]\n    Side data:\n      cpb: bitrate max/min/avg: 0/0/2000000 buffer size: 2000000 vbv_delay: N/A\nframe=    0 fps=0.0 q=0.0 size=       0KiB time=N/A bitrate=N/A speed=N/A elapsed=0:00:01.04    \nframe=    0 fps=0.0 q=0.0 size=       0KiB time=N/A bitrate=N/A speed=N/A elapsed=0:00:01.59    \nframe=    0 fps=0.0 q=0.0 size=       0KiB time=N/A bitrate=N/A speed=N/A elapsed=0:00:02.14    \nframe=    0 fps=0.0 q=0.0 size=       0KiB time=N/A bitrate=N/A speed=N/A elapsed=0:00:02.68    \nframe=    0 fps=0.0 q=0.0 size=       0KiB time=N/A bitrate=N/A speed=N/A elapsed=0:00:03.21    \nframe=    0 fps=0.0 q=0.0 size=       0KiB time=N/A bitrate=N/A speed=N/A elapsed=0:00:03.73    \nframe=    1 fps=0.2 q=20.0 size=       1KiB time=00:00:00.00 bitrate=N/A speed=   0x elapsed=0:00:04.23    \nframe=    1 fps=0.2 q=20.0 size=       1KiB time=00:00:00.00 bitrate=N/A speed=   0x elapsed=0:00:04.76    \nframe=    3 fps=0.6 q=39.0 size=       1KiB time=00:00:00.06 bitrate=  85.6kbits/s speed=0.0125x elapsed=0:00:05.31    \nframe=    7 fps=1.2 q=38.0 size=       1KiB time=00:00:00.20 bitrate=  28.5kbits/s speed=0.0343x elapsed=0:00:05.83    \nframe=    9 fps=1.4 q=33.0 size=       1KiB time=00:00:00.26 bitrate=  21.4kbits/s speed=0.042x elapsed=0:00:06.34    \nframe=   14 fps=2.0 q=37.0 size=       1KiB time=00:00:00.43 bitrate=  13.2kbits/s speed=0.063x elapsed=0:00:06.87    \nframe=   19 fps=2.6 q=37.0 size=       1KiB time=00:00:00.60 bitrate=   9.5kbits/s speed=0.0807x elapsed=0:00:07.43    \nframe=   23 fps=2.9 q=37.0 size=       1KiB time=00:00:00.73 bitrate=   7.8kbits/s speed=0.0924x elapsed=0:00:07.93    \nframe=   25 fps=3.0 q=32.0 size=       1KiB time=00:00:00.80 bitrate=   7.1kbits/s speed=0.0945x elapsed=0:00:08.46    \nframe=   31 fps=3.4 q=36.0 size=       1KiB time=00:00:01.00 bitrate=   5.7kbits/s speed=0.111x elapsed=0:00:09.01    \nframe=   38 fps=4.0 q=38.0 size=       1KiB time=00:00:01.23 bitrate=   4.6kbits/s speed=0.129x elapsed=0:00:09.55    \nframe=   40 fps=4.0 q=30.0 size=       1KiB time=00:00:01.30 bitrate=   4.4kbits/s speed=0.129x elapsed=0:00:10.09    \nframe=   43 fps=4.0 q=36.0 size=       1KiB time=00:00:01.40 bitrate=   4.1kbits/s speed=0.132x elapsed=0:00:10.62    \nframe=   48 fps=4.3 q=37.0 size=       1KiB time=00:00:01.56 bitrate=   3.6kbits/s speed=0.141x elapsed=0:00:11.14    \nframe=   57 fps=4.9 q=32.0 size=       1KiB time=00:00:01.86 bitrate=   3.1kbits/s speed=0.16x elapsed=0:00:11.67    \nframe=   59 fps=4.8 q=36.0 size=       1KiB time=00:00:01.93 bitrate=   3.0kbits/s speed=0.159x elapsed=0:00:12.19    \nframe=   65 fps=5.1 q=21.0 size=       1KiB time=00:00:02.13 bitrate=   2.7kbits/s speed=0.168x elapsed=0:00:12.72    \nframe=   71 fps=5.4 q=38.0 size=       1KiB time=00:00:02.33 bitrate=   2.4kbits/s speed=0.176x elapsed=0:00:13.26    \nframe=   73 fps=5.3 q=33.0 size=       1KiB time=00:00:02.40 bitrate=   2.4kbits/s speed=0.174x elapsed=0:00:13.79    \nframe=   79 fps=5.5 q=35.0 size=       1KiB time=00:00:02.60 bitrate=   2.2kbits/s speed=0.182x elapsed=0:00:14.32    \nframe=   85 fps=5.7 q=35.0 size=       1KiB time=00:00:02.80 bitrate=   2.0kbits/s speed=0.188x elapsed=0:00:14.86    \nframe=   89 fps=5.8 q=31.0 size=       1KiB time=00:00:02.93 bitrate=   1.9kbits/s speed=0.191x elapsed=0:00:15.39    \nframe=   95 fps=6.0 q=37.0 size=       1KiB time=00:00:03.13 bitrate=   1.8kbits/s speed=0.197x elapsed=0:00:15.91    \nframe=  101 fps=6.1 q=37.0 size=       1KiB time=00:00:03.26 bitrate=   1.7kbits/s speed=0.199x elapsed=0:00:16.45    \nframe=  105 fps=6.2 q=32.0 size=       1KiB time=00:00:03.46 bitrate=   1.6kbits/s speed=0.204x elapsed=0:00:16.97    \nframe=  109 fps=6.2 q=35.0 size=       1KiB time=00:00:03.60 bitrate=   1.6kbits/s speed=0.206x elapsed=0:00:17.50    \nframe=  113 fps=6.3 q=23.0 size=       1KiB time=00:00:03.73 bitrate=   1.5kbits/s speed=0.207x elapsed=0:00:18.03    \nframe=  121 fps=6.5 q=33.0 size=       1KiB time=00:00:04.00 bitrate=   1.4kbits/s speed=0.215x elapsed=0:00:18.58    \nframe=  123 fps=6.4 q=38.0 size=       1KiB time=00:00:04.06 bitrate=   1.4kbits/s speed=0.212x elapsed=0:00:19.16    \nframe=  129 fps=6.6 q=24.0 size=       1KiB time=00:00:04.26 bitrate=   1.3kbits/s speed=0.217x elapsed=0:00:19.69    \nframe=  135 fps=6.7 q=41.0 size=       1KiB time=00:00:04.46 bitrate=   1.3kbits/s speed=0.221x elapsed=0:00:20.21    \nframe=  141 fps=6.8 q=41.0 size=       1KiB time=00:00:04.66 bitrate=   1.2kbits/s speed=0.225x elapsed=0:00:20.73    \n[out#0/matroska @ 000002a0abdf8fc0] video:1164KiB audio:0KiB subtitle:0KiB other streams:0KiB global headers:0KiB muxing overhead: 0.121126%\nframe=  150 fps=7.2 q=41.0 Lsize=    1166KiB time=00:00:04.96 bitrate=1922.6kbits/s speed=0.237x elapsed=0:00:20.97    \n",
  "seconds": 21.431084871292114,
  "probe_out": {}
}